<?xml version="1.0" encoding="UTF-8" standalone="no"?>
<svg width="390px" height="371px" viewBox="0 0 390 371" version="1.1" xmlns="http://www.w3.org/2000/svg" xmlns:xlink="http://www.w3.org/1999/xlink" xmlns:sketch="http://www.bohemiancoding.com/sketch/ns">
    <!-- Generator: Sketch 3.3.2 (12043) - http://www.bohemiancoding.com/sketch -->
    <title>logo-2</title>
    <desc>Created with Sketch.</desc>
    <defs>
        <filter x="-50%" y="-50%" width="200%" height="200%" filterUnits="objectBoundingBox" id="filter-1">
            <feOffset dx="0" dy="2" in="SourceAlpha" result="shadowOffsetOuter1"></feOffset>
            <feGaussianBlur stdDeviation="2" in="shadowOffsetOuter1" result="shadowBlurOuter1"></feGaussianBlur>
            <feColorMatrix values="0 0 0 0 0   0 0 0 0 0   0 0 0 0 0  0 0 0 0.35 0" in="shadowBlurOuter1" type="matrix" result="shadowMatrixOuter1"></feColorMatrix>
            <feMorphology radius="3" in="SourceAlpha" operator="dilate" result="shadowSpreadInner1"></feMorphology>
            <feOffset dx="0" dy="1" in="shadowSpreadInner1" result="shadowOffsetInner1"></feOffset>
            <feGaussianBlur stdDeviation="1.5" in="shadowOffsetInner1" result="shadowBlurInner1"></feGaussianBlur>
            <feComposite in="shadowBlurInner1" in2="SourceAlpha" operator="arithmetic" k2="-1" k3="1" result="shadowInnerInner1"></feComposite>
            <feColorMatrix values="0 0 0 0 0.41974915   0 0 0 0 0.41974915   0 0 0 0 0.41974915  0 0 0 0.35 0" in="shadowInnerInner1" type="matrix" result="shadowMatrixInner1"></feColorMatrix>
            <feMerge>
                <feMergeNode in="shadowMatrixOuter1"></feMergeNode>
                <feMergeNode in="SourceGraphic"></feMergeNode>
                <feMergeNode in="shadowMatrixInner1"></feMergeNode>
            </feMerge>
        </filter>
    </defs>
    <g id="Welcome" stroke="none" stroke-width="1" fill="none" fill-rule="evenodd" sketch:type="MSPage">
        <g id="Desktop" sketch:type="MSArtboardGroup" transform="translate(-72.000000, -277.000000)">
            <path d="M229.359508,596.745723 C229.359508,596.745723 247.464542,600 257,600 C272.29725,600 295.371791,600.675322 311.380249,592.602371 C329.818228,583.304231 340.197589,565.084128 340.197589,565.084128 C340.197589,565.084128 354.278248,549.683927 361.947433,534.277115 C367.34643,523.430939 366.454754,514.339771 368.773532,502.970202 C369.554916,499.138873 370,495.44466 370,492 C370,475.190798 367.436353,454.006576 360.268356,439.820633 C352.81786,425.075604 340.509825,417.467611 327.22733,407.38421 C307.943423,392.744839 283.540224,384 257,384 C229.702533,384 200.331724,391.983576 180.800568,407.384211 C155.679088,427.192907 144,458.442861 144,492 C144,500.946543 144.654702,514.72833 147.136,523.81752 C148.706396,529.570004 150.918544,534.957733 150.918544,534.957733 C150.918544,534.957733 156.092535,546.214314 164.836504,556.548462 C174.150679,567.556514 187.369349,577.860707 197.756058,583.984523 C190.824789,611.268462 177.294987,615.618989 177.294987,615.618989 C177.072574,615.615772 194.053601,627.736685 229.359508,596.745723 Z" id="Oval-3" stroke="#ABABAB" stroke-width="2" filter="url(#filter-1)" sketch:type="MSShapeGroup"></path>
            <path d="M255.472408,525.28397 C254.066998,525.632638 252.773303,526.330235 251.240148,525.851772 C250.056779,518.122227 250.444661,511.822558 250.056779,503.983601 C249.988924,502.612274 249.591187,498.171452 249.591187,498.171452 C249.591187,498.171452 248.503767,495.214073 247.826864,490.512239 C247.050642,485.120524 246.627263,477.641663 245.838005,473.197454 C245.335078,470.365541 243.649818,464.716395 243.649818,464.716395 C243.649818,464.716395 242.4107,458.516605 241.889507,455.310371 C241.611626,453.600924 241.430751,451.125823 241.109023,448.848195 C240.679561,445.807884 240.139802,443.123742 240.139802,443.123742 C240.139802,443.123742 239.893153,441.351447 240.139802,440.108343 C240.34534,439.072438 241.496363,436.286714 241.496363,436.286714 C241.496363,436.286714 241.793765,433.966121 242.448882,432.683909 C242.970871,431.662259 245.027681,429.375128 245.027681,429.375128 C245.027681,429.375128 246.886658,428.508313 247.826863,428.170697 C248.795784,427.82277 250.75506,427.318501 250.75506,427.318501 C250.75506,427.318501 253.533096,427.108227 254.919634,427.318501 C256.138094,427.503285 258.570051,428.503676 258.570051,428.503676 C258.570051,428.503676 261.009047,429.186368 262.220031,429.68278 C262.680622,429.871588 263.584776,430.559335 263.584776,430.559335 L267.19162,437.213358 C267.19162,437.213358 268.839211,441.682153 269.381493,444.361113 C269.67516,445.811869 269.699466,449.602506 269.699466,449.602506 C269.699466,449.602506 268.727093,458.426805 268.070291,462.765428 C267.35278,467.505079 265.576528,476.83733 265.576528,476.83733 C265.576528,476.83733 264.922225,482.234663 264.327731,484.862297 C263.146076,490.085158 260.248081,500.388814 260.248081,500.388814 L256.028315,524.544506 C256.028315,524.544506 255.75697,525.213373 255.472408,525.28397 Z" id="Path-4" stroke="#979797" stroke-width="0.2" fill="#B6B6B6" sketch:type="MSShapeGroup"></path>
            <path d="M254,550 C254.687013,550 255.978211,549.736812 255.978211,549.736812 C255.978211,549.736812 257.499042,548.659078 258.125055,547.781316 C259.220684,546.245086 260.216682,544.179731 260.216682,542.421571 C260.216682,541.212184 260.244185,540.656022 258.914383,538.828011 C257.58458,537 256.563576,537 254,537 C250.134007,537 247,539.910149 247,543.5 C247,547.089851 250.134007,550 254,550 Z" id="Oval-3" stroke="#979797" stroke-width="0.2" fill="#B6B6B6" sketch:type="MSShapeGroup"></path>
            <g id="meter" sketch:type="MSLayerGroup" transform="translate(94.000000, 531.000000)" stroke="#979797" fill="#D8D8D8">
                <path d="M38.9249564,21.858217 C44.3561316,10.9976128 51.1384384,8.74833132 51.1384384,8.74833132 L47.4674005,3.78713306 L53.6480336,0.50083212 L61.6290502,15.5109412 L55.448417,18.7972421 L53.0705899,14.3251998 C53.530899,14.073497 48.5149365,16.504751 45.1605826,24.2950169 L47.5446326,25.2266719 L46.5990984,31.9545104 C54.1351995,37.7851831 58.4186825,47.067145 57.0520163,56.7914806 C54.9767104,71.5580493 40.6586363,81.7528857 25.0717026,79.562285 C9.48476896,77.3716844 -1.46856952,63.6251825 0.606736378,48.8586138 C2.68204227,34.0920451 17.0001164,23.8972087 32.5870501,26.0878093 C32.8518199,26.1250203 33.1152528,26.1655657 33.3773075,26.2093939 L35.6286904,20.57008 L38.9249564,21.858217 Z M25.2724341,74.5413581 C38.3982729,76.3860745 50.4408409,67.905955 52.1702625,55.600481 C53.8996841,43.2950071 44.6610625,31.8240114 31.5352236,29.9792951 C18.4093848,28.1345787 6.36681678,36.6146982 4.6373952,48.9201722 C2.90797363,61.2256461 12.1465952,72.6966418 25.2724341,74.5413581 L25.2724341,74.5413581 Z" id="Path-5" sketch:type="MSShapeGroup"></path>
            </g>
            <g id="meter-copy" sketch:type="MSLayerGroup" transform="translate(113.347349, 441.187772) rotate(47.000000) translate(-113.347349, -441.187772) translate(82.347349, 401.187772)" stroke="#979797" fill="#D8D8D8">
                <path d="M38.9249564,21.858217 C44.3561316,10.9976128 51.1384384,8.74833132 51.1384384,8.74833132 L47.4674005,3.78713306 L53.6480336,0.50083212 L61.6290502,15.5109412 L55.448417,18.7972421 L53.0705899,14.3251998 C53.530899,14.073497 48.5149365,16.504751 45.1605826,24.2950169 L47.5446326,25.2266719 L46.5990984,31.9545104 C54.1351995,37.7851831 58.4186825,47.067145 57.0520163,56.7914806 C54.9767104,71.5580493 40.6586363,81.7528857 25.0717026,79.562285 C9.48476896,77.3716844 -1.46856952,63.6251825 0.606736378,48.8586138 C2.68204227,34.0920451 17.0001164,23.8972087 32.5870501,26.0878093 C32.8518199,26.1250203 33.1152528,26.1655657 33.3773075,26.2093939 L35.6286904,20.57008 L38.9249564,21.858217 Z M25.2724341,74.5413581 C38.3982729,76.3860745 50.4408409,67.905955 52.1702625,55.600481 C53.8996841,43.2950071 44.6610625,31.8240114 31.5352236,29.9792951 C18.4093848,28.1345787 6.36681678,36.6146982 4.6373952,48.9201722 C2.90797363,61.2256461 12.1465952,72.6966418 25.2724341,74.5413581 L25.2724341,74.5413581 Z" id="Path-5" sketch:type="MSShapeGroup"></path>
            </g>
            <g id="meter-copy-2" sketch:type="MSLayerGroup" transform="translate(362.430172, 605.368265) rotate(-100.000000) translate(-362.430172, -605.368265) translate(331.430172, 565.368265)" stroke="#979797" fill="#D8D8D8">
                <path d="M38.9249564,21.858217 C44.3561316,10.9976128 51.1384384,8.74833132 51.1384384,8.74833132 L47.4674005,3.78713306 L53.6480336,0.50083212 L61.6290502,15.5109412 L55.448417,18.7972421 L53.0705899,14.3251998 C53.530899,14.073497 48.5149365,16.504751 45.1605826,24.2950169 L47.5446326,25.2266719 L46.5990984,31.9545104 C54.1351995,37.7851831 58.4186825,47.067145 57.0520163,56.7914806 C54.9767104,71.5580493 40.6586363,81.7528857 25.0717026,79.562285 C9.48476896,77.3716844 -1.46856952,63.6251825 0.606736378,48.8586138 C2.68204227,34.0920451 17.0001164,23.8972087 32.5870501,26.0878093 C32.8518199,26.1250203 33.1152528,26.1655657 33.3773075,26.2093939 L35.6286904,20.57008 L38.9249564,21.858217 Z M25.2724341,74.5413581 C38.3982729,76.3860745 50.4408409,67.905955 52.1702625,55.600481 C53.8996841,43.2950071 44.6610625,31.8240114 31.5352236,29.9792951 C18.4093848,28.1345787 6.36681678,36.6146982 4.6373952,48.9201722 C2.90797363,61.2256461 12.1465952,72.6966418 25.2724341,74.5413581 L25.2724341,74.5413581 Z" id="Path-5" sketch:type="MSShapeGroup"></path>
            </g>
            <path d="M217.351691,308.896811 C225.487639,293.613208 235.714361,290.455966 235.714361,290.455966 L230.226926,283.552422 L239.465681,278.97951 L251.395634,299.866188 L242.156879,304.4391 L238.602524,298.21622 C239.296397,297.863018 231.665619,301.306458 226.652289,312.365382 L229.954398,313.59689 L228.63868,322.958727 C239.971497,331.191088 246.497964,344.186548 244.596238,357.718034 C241.708434,378.265824 220.479665,392.2686 197.180456,388.99411 C173.881246,385.71962 157.334532,366.407845 160.222335,345.860055 C163.110139,325.312265 184.338908,311.309489 207.638117,314.583979 C208.033893,314.639602 208.42772,314.699852 208.819537,314.764657 L212.100108,306.938275 L217.351691,308.896811 Z M197.373509,382.007453 C216.993897,384.764918 234.850219,373.119223 237.256722,355.996065 C239.663225,338.872906 225.708615,322.756476 206.088228,319.99901 C186.467841,317.241545 168.611518,328.88724 166.205015,346.010398 C163.798512,363.133557 177.753122,379.249987 197.373509,382.007453 L197.373509,382.007453 Z" id="Path-5" stroke="#979797" fill="#D8D8D8" sketch:type="MSShapeGroup" transform="translate(205.599229, 334.192914) rotate(106.000000) translate(-205.599229, -334.192914) "></path>
            <path d="M383.312148,366.27366 C398.947055,369.486165 409.184638,362.379549 409.184638,362.379549 L403.697203,355.476005 L412.935959,350.903093 L424.865911,371.789771 L415.627156,376.362684 L412.072801,370.139803 C412.775903,369.781903 401.518899,376.852655 383.863699,375.120443 C383.863699,375.120443 383.86215,375.112563 383.859151,375.097268 L384.074889,378.577294 L374.987274,381.183128 C372.07611,394.884574 362.858719,406.132528 349.723591,409.898966 C329.777675,415.618365 308.350984,401.920362 301.865737,379.303619 C295.380491,356.686877 306.292519,333.715895 326.238435,327.996496 C346.184351,322.277097 367.611042,335.9751 374.096289,358.591842 C374.206451,358.976025 374.311594,359.36031 374.411758,359.744611 L382.895841,359.558285 L383.312148,366.27366 Z M347.065397,402.671032 C363.686994,397.904866 372.734234,378.601553 367.272974,359.555875 C361.811714,340.510197 343.910021,328.934365 327.288425,333.700532 C310.666828,338.466698 301.619588,357.770011 307.080848,376.815689 C312.542108,395.861367 330.443801,407.437199 347.065397,402.671032 Z" id="Path-5-Copy" stroke="#979797" fill="#D8D8D8" sketch:type="MSShapeGroup" transform="translate(362.430172, 368.947731) rotate(153.000000) translate(-362.430172, -368.947731) "></path>
            <path d="M421.709876,496.703696 C433.185245,499.061541 440.699204,493.845582 440.699204,493.845582 L436.671656,488.778668 L443.452517,485.422341 L452.208605,500.752292 L445.427744,504.108619 L442.818996,499.541284 C443.335043,499.278601 435.072872,504.468237 422.114691,503.196866 C422.114691,503.196866 422.113554,503.191083 422.111353,503.179857 L422.269696,505.73405 L415.599766,507.646624 C413.463093,517.702914 406.697912,525.958443 397.057275,528.722851 C382.417805,532.920652 366.691507,522.866889 361.931607,506.267143 C357.171706,489.667397 365.18068,472.807655 379.820151,468.609854 C394.459621,464.412054 410.185919,474.465817 414.945819,491.065562 C415.026674,491.347537 415.103844,491.629586 415.177361,491.911647 L421.404324,491.774891 L421.709876,496.703696 Z M395.106273,523.41785 C407.305831,519.919683 413.946128,505.751855 409.937791,491.773122 C405.929454,477.794389 392.790358,469.298211 380.590799,472.796379 C368.391241,476.294546 361.750944,490.462373 365.759281,504.441106 C369.767618,518.419839 382.906714,526.916017 395.106273,523.41785 Z" id="Path-5-Copy-2" stroke="#979797" fill="#D8D8D8" sketch:type="MSShapeGroup" transform="translate(406.383376, 498.666353) rotate(214.000000) translate(-406.383376, -498.666353) "></path>
        </g>
    </g>
</svg>