<?xml version="1.0" encoding="UTF-8" standalone="no"?>
<svg width="390px" height="364px" viewBox="0 0 390 364" version="1.1" xmlns="http://www.w3.org/2000/svg" xmlns:xlink="http://www.w3.org/1999/xlink" xmlns:sketch="http://www.bohemiancoding.com/sketch/ns">
    <!-- Generator: Sketch 3.3.2 (12043) - http://www.bohemiancoding.com/sketch -->
    <title>logo-6</title>
    <desc>Created with Sketch.</desc>
    <defs></defs>
    <g id="Welcome" stroke="none" stroke-width="1" fill="none" fill-rule="evenodd" sketch:type="MSPage">
        <g id="Desktop" sketch:type="MSArtboardGroup" transform="translate(-64.000000, -279.000000)" stroke="#979797">
            <path d="M229.359508,596.745723 C229.359508,596.745723 247.464542,600 257,600 C272.29725,600 295.371791,600.675322 311.380249,592.602371 C329.818228,583.304231 340.197589,565.084128 340.197589,565.084128 C340.197589,565.084128 354.278248,549.683927 361.947433,534.277115 C367.34643,523.430939 366.454754,514.339771 368.773532,502.970202 C369.554916,499.138873 370,495.44466 370,492 C370,475.190798 367.436353,454.006576 360.268356,439.820633 C352.81786,425.075604 340.509825,417.467611 327.22733,407.38421 C307.943423,392.744839 283.540224,384 257,384 C229.702533,384 200.331724,391.983576 180.800568,407.384211 C155.679088,427.192907 144,458.442861 144,492 C144,500.946543 144.654702,514.72833 147.136,523.81752 C148.706396,529.570004 150.918544,534.957733 150.918544,534.957733 C150.918544,534.957733 156.092535,546.214314 164.836504,556.548462 C174.150679,567.556514 187.369349,577.860707 197.756058,583.984523 C190.824789,611.268462 177.294987,615.618989 177.294987,615.618989 C177.072574,615.615772 194.053601,627.736685 229.359508,596.745723 Z" id="main-bubble" stroke-width="4" fill="#F6F6F6" sketch:type="MSShapeGroup"></path>
            <g id="exclam-top-+-exclam-bottom" sketch:type="MSLayerGroup" transform="translate(240.000000, 427.000000)">
                <path d="M15.472408,98.28397 C14.0669978,98.6326384 12.7733028,99.3302346 11.2401483,98.8517724 C10.0567786,91.1222268 10.4446609,84.8225576 10.0567786,76.9836007 C9.98892354,75.6122742 9.59118688,71.1714521 9.59118688,71.1714521 C9.59118688,71.1714521 8.50376668,68.214073 7.82686373,63.5122388 C7.05064157,58.1205237 6.6272634,50.6416628 5.83800503,46.1974538 C5.33507835,43.3655406 3.64981823,37.7163953 3.64981823,37.7163953 C3.64981823,37.7163953 2.41069984,31.5166045 1.88950713,28.3103708 C1.6116262,26.6009239 1.43075065,24.1258225 1.1090227,21.8481954 C0.679561251,18.8078844 0.139801707,16.1237419 0.139801707,16.1237419 C0.139801707,16.1237419 -0.106847275,14.3514473 0.139801707,13.1083434 C0.345339681,12.0724379 1.49636257,9.28671388 1.49636257,9.28671388 C1.49636257,9.28671388 1.79376497,6.9661209 2.44888231,5.68390878 C2.9708712,4.66225902 5.02768127,2.37512824 5.02768127,2.37512824 C5.02768127,2.37512824 6.88665784,1.50831292 7.82686349,1.17069723 C8.79578407,0.822770381 10.7550599,0.318500631 10.7550599,0.318500631 C10.7550599,0.318500631 13.5330965,0.108226631 14.9196336,0.318500631 C16.1380935,0.503285042 18.5700512,1.50367586 18.5700512,1.50367586 C18.5700512,1.50367586 21.0090473,2.18636844 22.2200305,2.68278038 C22.680622,2.87158822 23.5847755,3.5593352 23.5847755,3.5593352 L27.1916201,10.2133582 C27.1916201,10.2133582 28.8392108,14.6821532 29.3814933,17.3611127 C29.6751595,18.8118692 29.6994664,22.6025062 29.6994664,22.6025062 C29.6994664,22.6025062 28.7270931,31.4268045 28.0702915,35.7654279 C27.3527804,40.505079 25.5765283,49.8373296 25.5765283,49.8373296 C25.5765283,49.8373296 24.9222246,55.2346627 24.3277309,57.8622972 C23.1460756,63.0851576 20.2480812,73.3888142 20.2480812,73.3888142 L16.0283151,97.5445059 C16.0283151,97.5445059 15.7569699,98.213373 15.472408,98.28397 Z" id="exclam-top" fill="#D7D7D7" sketch:type="MSShapeGroup"></path>
                <path d="M14,123 C14.687013,123 15.9782114,122.736812 15.9782114,122.736812 C15.9782114,122.736812 17.4990416,121.659078 18.1250553,120.781316 C19.2206837,119.245086 20.2166824,117.179731 20.2166824,115.421571 C20.2166824,114.212184 20.2441854,113.656022 18.9143829,111.828011 C17.5845804,110 16.5635765,110 14,110 C10.1340068,110 7,112.910149 7,116.5 C7,120.089851 10.1340068,123 14,123 Z" id="exclam-bottom" fill="#D7D6D7" sketch:type="MSShapeGroup"></path>
            </g>
            <g id="meter5" sketch:type="MSLayerGroup" transform="translate(368.000000, 471.000000)">
                <path d="M25.0917376,21.2415484 C16.7759329,12.3532363 7.26097543,12.4806496 7.26097543,12.4806496 L7.76658215,18.9334878 L0.268159283,17.9241994 L1.5814334,0.318752014 L9.07985627,1.32804041 L8.68858547,6.57332583 C8.1138717,6.50253038 17.8655303,6.82027401 27.8974071,15.1204114" id="Path" fill="#D7D7D7" sketch:type="MSShapeGroup"></path>
                <path d="M27.6299383,15.5347898 C28.4951621,14.0631485 29.1652269,12.923449 29.1652269,12.923449 L35.7643473,15.067631 C43.1591355,7.92540101 53.3841576,4.86429818 62.922445,7.96347563 C77.4064964,12.6696292 84.8221949,29.7986104 79.4858712,46.2221259 C74.1495476,62.6456414 58.0819589,72.1444401 43.5979075,67.4382865 C29.1138561,62.7321329 21.6981576,45.6031517 27.0344812,29.1796362 C27.1251275,28.9006556 27.2188703,28.6236731 27.3156492,28.3487244 L22.0767898,24.9800257 C22.0767898,24.9800257 23.8010553,22.047258 24.6631881,20.5808741" id="Path" fill="#D7D7D7" sketch:type="MSShapeGroup"></path>
                <path d="M79.767477,38.4945338 C79.767477,25.8033397 67.9788014,15.5150942 53.436733,15.5150942 C38.8946647,15.5150942 27.1059891,25.8033397 27.1059891,38.4945338 C27.1059891,51.1857279 38.8946647,61.4739735 53.436733,61.4739735 C67.9788014,61.4739735 79.767477,51.1857279 79.767477,38.4945338 Z" id="Path" fill="#FAFAFA" sketch:type="MSShapeGroup" transform="translate(53.436733, 38.494534) rotate(288.000000) translate(-53.436733, -38.494534) "></path>
            </g>
            <g id="meter1" sketch:type="MSLayerGroup" transform="translate(90.000000, 531.000000)">
                <path d="M42.2401109,23.2022615 C42.3013816,23.0668931 42.2948777,23.1708006 42.3566009,23.0378155 C47.8700775,11.1588076 55.1384384,8.74833132 55.1384384,8.74833132 L51.4674005,3.78713306 L57.6480336,0.50083212 L65.6290502,15.5109412 L59.448417,18.7972421 L57.0705899,14.3251998 C57.5409581,14.0679966 52.2930951,16.6122919 48.943131,24.8134408 L42.2401109,23.2022615 Z" id="Path" fill="#D8D8D8" sketch:type="MSShapeGroup"></path>
                <path d="M47.9312275,29.7132013 C56.2054605,34.4383078 61.7390564,43.0337926 61.7390564,52.8536948 C61.7390564,67.7653831 48.9791718,79.8536948 33.2390564,79.8536948 C17.498941,79.8536948 4.73905641,67.7653831 4.73905641,52.8536948 C4.73905641,37.9420066 17.498941,25.8536948 33.2390564,25.8536948 C33.5064283,25.8536948 33.7729403,25.8571828 34.0385444,25.8641135 L35.4831762,19.9663491 L47.9312256,22.9192448 L47.9312275,29.7132013 Z" id="Path" fill="#D8D8D8" sketch:type="MSShapeGroup" transform="translate(33.239056, 49.910022) rotate(8.000000) translate(-33.239056, -49.910022) "></path>
                <path d="M32.4038289,74.7603266 C45.6586628,74.7603266 56.4038289,64.6867335 56.4038289,52.2603266 C56.4038289,39.8339197 45.6586628,29.7603266 32.4038289,29.7603266 C19.1489949,29.7603266 8.40382885,39.8339197 8.40382885,52.2603266 C8.40382885,64.6867335 19.1489949,74.7603266 32.4038289,74.7603266 L32.4038289,74.7603266 Z" id="Path" fill="#FAFAFA" sketch:type="MSShapeGroup" transform="translate(32.403829, 52.260327) rotate(8.000000) translate(-32.403829, -52.260327) "></path>
            </g>
            <g id="meter2" sketch:type="MSLayerGroup" transform="translate(110.520644, 441.089062) rotate(47.000000) translate(-110.520644, -441.089062) translate(77.520644, 399.089062)">
                <path d="M42.2401109,23.2022615 C42.3013816,23.0668931 42.2948777,23.1708006 42.3566009,23.0378155 C47.8700775,11.1588076 55.1384384,8.74833132 55.1384384,8.74833132 L51.4674005,3.78713306 L57.6480336,0.50083212 L65.6290502,15.5109412 L59.448417,18.7972421 L57.0705899,14.3251998 C57.5409581,14.0679966 52.2930951,16.6122919 48.943131,24.8134408 L42.2401109,23.2022615 Z" id="Path" fill="#D8D8D8" sketch:type="MSShapeGroup"></path>
                <path d="M47.9312275,29.7132013 C56.2054605,34.4383078 61.7390564,43.0337926 61.7390564,52.8536948 C61.7390564,67.7653831 48.9791718,79.8536948 33.2390564,79.8536948 C17.498941,79.8536948 4.73905641,67.7653831 4.73905641,52.8536948 C4.73905641,37.9420066 17.498941,25.8536948 33.2390564,25.8536948 C33.5064283,25.8536948 33.7729403,25.8571828 34.0385444,25.8641135 L35.4831762,19.9663491 L47.9312256,22.9192448 L47.9312275,29.7132013 Z" id="Path" fill="#D8D8D8" sketch:type="MSShapeGroup" transform="translate(33.239056, 49.910022) rotate(8.000000) translate(-33.239056, -49.910022) "></path>
                <path d="M32.4038289,74.7603266 C45.6586628,74.7603266 56.4038289,64.6867335 56.4038289,52.2603266 C56.4038289,39.8339197 45.6586628,29.7603266 32.4038289,29.7603266 C19.1489949,29.7603266 8.40382885,39.8339197 8.40382885,52.2603266 C8.40382885,64.6867335 19.1489949,74.7603266 32.4038289,74.7603266 L32.4038289,74.7603266 Z" id="Path" fill="#FAFAFA" sketch:type="MSShapeGroup" transform="translate(32.403829, 52.260327) rotate(8.000000) translate(-32.403829, -52.260327) "></path>
            </g>
            <g id="meter6" sketch:type="MSLayerGroup" transform="translate(364.747084, 606.990585) rotate(-100.000000) translate(-364.747084, -606.990585) translate(331.747084, 564.990585)">
                <path d="M42.2401109,23.2022615 C42.3013816,23.0668931 42.2948777,23.1708006 42.3566009,23.0378155 C47.8700775,11.1588076 55.1384384,8.74833132 55.1384384,8.74833132 L51.4674005,3.78713306 L57.6480336,0.50083212 L65.6290502,15.5109412 L59.448417,18.7972421 L57.0705899,14.3251998 C57.5409581,14.0679966 52.2930951,16.6122919 48.943131,24.8134408 L42.2401109,23.2022615 Z" id="Path" fill="#D8D8D8" sketch:type="MSShapeGroup"></path>
                <path d="M47.9312275,29.7132013 C56.2054605,34.4383078 61.7390564,43.0337926 61.7390564,52.8536948 C61.7390564,67.7653831 48.9791718,79.8536948 33.2390564,79.8536948 C17.498941,79.8536948 4.73905641,67.7653831 4.73905641,52.8536948 C4.73905641,37.9420066 17.498941,25.8536948 33.2390564,25.8536948 C33.5064283,25.8536948 33.7729403,25.8571828 34.0385444,25.8641135 L35.4831762,19.9663491 L47.9312256,22.9192448 L47.9312275,29.7132013 Z" id="Path" fill="#D8D8D8" sketch:type="MSShapeGroup" transform="translate(33.239056, 49.910022) rotate(8.000000) translate(-33.239056, -49.910022) "></path>
                <path d="M32.4038289,74.7603266 C45.6586628,74.7603266 56.4038289,64.6867335 56.4038289,52.2603266 C56.4038289,39.8339197 45.6586628,29.7603266 32.4038289,29.7603266 C19.1489949,29.7603266 8.40382885,39.8339197 8.40382885,52.2603266 C8.40382885,64.6867335 19.1489949,74.7603266 32.4038289,74.7603266 L32.4038289,74.7603266 Z" id="Path" fill="#FAFAFA" sketch:type="MSShapeGroup" transform="translate(32.403829, 52.260327) rotate(8.000000) translate(-32.403829, -52.260327) "></path>
            </g>
            <g id="meter3" sketch:type="MSLayerGroup" transform="translate(137.000000, 272.000000)">
                <path d="M80.1278216,114.641559 C80.2194085,114.453193 80.2096866,114.597781 80.3019498,114.412731 C88.5434456,97.8830033 99.4081268,94.5288077 99.4081268,94.5288077 L93.920692,87.6252634 L103.159447,83.0523511 L115.0894,103.93903 L105.850645,108.511942 L102.29629,102.289062 C102.999392,101.931162 95.154933,105.471567 90.1474364,116.883527 L80.1278216,114.641559 Z" id="Path" fill="#D8D8D8" sketch:type="MSShapeGroup" transform="translate(97.608611, 99.967939) rotate(106.000000) translate(-97.608611, -99.967939) "></path>
                <path d="M78.2677487,27.8384181 C90.6359987,34.4134389 98.9075687,46.37412 98.9075687,60.038587 C98.9075687,80.7883122 79.8342066,97.609288 56.3060221,97.609288 C32.7778376,97.609288 13.7044756,80.7883122 13.7044756,60.038587 C13.7044756,39.2888618 32.7778376,22.4678861 56.3060221,22.4678861 C56.7056873,22.4678861 57.104067,22.4727397 57.5010896,22.4823838 L59.6605124,14.2756008 L78.267746,18.384577 L78.2677487,27.8384181 Z" id="Path" fill="#D8D8D8" sketch:type="MSShapeGroup" transform="translate(56.306022, 55.942444) rotate(114.000000) translate(-56.306022, -55.942444) "></path>
                <path d="M53.5063787,85.1497728 C73.3195867,85.1497728 89.3813653,71.132293 89.3813653,53.8408553 C89.3813653,36.5494177 73.3195867,22.5319379 53.5063787,22.5319379 C33.6931708,22.5319379 17.6313922,36.5494177 17.6313922,53.8408553 C17.6313922,71.132293 33.6931708,85.1497728 53.5063787,85.1497728 L53.5063787,85.1497728 Z" id="Path" fill="#FAFAFA" sketch:type="MSShapeGroup" transform="translate(53.506379, 53.840855) rotate(114.000000) translate(-53.506379, -53.840855) "></path>
            </g>
            <g id="meter4" sketch:type="MSLayerGroup" transform="translate(303.000000, 301.000000)">
                <path d="M3.92810292,93.8102458 C20.0930481,97.5142787 30.7435287,90.1210425 30.7435287,90.1210425 L25.2560939,83.2174982 L34.4948494,78.6445859 L46.424802,99.5312644 L37.1860465,104.104177 L33.6316917,97.8812964 C34.3347938,97.5233963 23.07779,104.594148 5.42258959,102.861936 C5.42258959,102.861936 3.62999727,93.741938 3.92810292,93.8102458 Z" id="Path" fill="#D8D8D8" sketch:type="MSShapeGroup" transform="translate(25.159728, 91.374381) rotate(153.000000) translate(-25.159728, -91.374381) "></path>
                <path d="M100.18053,31.5375811 C112.54878,38.112602 120.82035,50.0732831 120.82035,63.7377501 C120.82035,84.4874752 101.746988,101.308451 78.2188032,101.308451 C54.6906187,101.308451 35.6172567,84.4874752 35.6172567,63.7377501 C35.6172567,42.9880249 54.6906187,26.1670491 78.2188032,26.1670491 C78.6184684,26.1670491 79.0168481,26.1719027 79.4138707,26.1815468 L81.5732935,17.9747638 L100.180527,22.0837401 L100.18053,31.5375811 Z" id="Path" fill="#D8D8D8" sketch:type="MSShapeGroup" transform="translate(78.218803, 59.641607) rotate(227.000000) translate(-78.218803, -59.641607) "></path>
                <path d="M118.151896,57.1618916 C118.151896,39.870454 102.090118,25.8529742 82.2769098,25.8529742 C62.4637018,25.8529742 46.4019232,39.870454 46.4019232,57.1618916 C46.4019232,74.4533293 62.4637018,88.4708091 82.2769098,88.4708091 C102.090118,88.4708091 118.151896,74.4533293 118.151896,57.1618916 Z" id="Path" fill="#FAFAFA" sketch:type="MSShapeGroup" transform="translate(82.276910, 57.161892) rotate(227.000000) translate(-82.276910, -57.161892) "></path>
            </g>
            <g id="arrow3" sketch:type="MSLayerGroup" transform="translate(186.000000, 307.000000)" fill="#D8D8D8">
                <ellipse id="Oval-4" sketch:type="MSShapeGroup" cx="3" cy="24.5" rx="3" ry="3.5"></ellipse>
                <path d="M12.3611049,13.5993771 C10.2307843,16.6305876 5.75400759,22.2238961 5.75400759,22.2238961 C5.75400759,22.2238961 4.75736177,21.9656023 4.2604533,21.6163773 C3.93920573,21.390606 3.29953946,20.4989074 3.29953946,20.4989074 C3.29953946,20.4989074 7.68771242,14.820037 9.78291263,11.838799 C11.3829327,9.56214749 14.3852002,4.72523879 14.3852002,4.72523879 L10.6783671,5.25627806 C10.6783671,5.25627806 10.4982128,4.26380899 10.449798,3.66666767 C10.4220231,3.32409565 10.449798,2.43713805 10.449798,2.43713805 C10.449798,2.43713805 11.0499978,2.06515363 11.4415797,1.96047685 C12.4732049,1.68470518 14.7194194,1.2957927 14.7194194,1.2957927 L18.5154151,0.801908937 C18.87983,0.70368411 19.3547267,2.84762881 19.3547267,2.84762881 C19.3547267,2.84762881 19.7543712,4.42429505 19.8972987,5.07321355 C20.0634582,5.82760983 20.2819876,7.05757314 20.2819876,7.05757314 C20.2819876,7.05757314 19.6065301,7.7335673 19.2178534,7.83833167 C18.6409897,7.99382021 17.3853662,7.83833188 17.3853662,7.83833188 L16.9770289,6.25477863 C16.9770289,6.25477863 13.9717914,11.3075484 12.3611049,13.5993771 Z" id="Path-44" sketch:type="MSShapeGroup"></path>
            </g>
            <g id="arrow2" sketch:type="MSLayerGroup" transform="translate(95.095261, 447.311758) rotate(-121.000000) translate(-95.095261, -447.311758) translate(87.095261, 437.311758)" fill="#D8D8D8">
                <ellipse id="Oval-4" sketch:type="MSShapeGroup" cx="3.14285714" cy="17.5" rx="2.14285714" ry="2.5"></ellipse>
                <path d="M9.82936062,9.7138408 C8.30770307,11.8789911 5.11000542,15.8742115 5.11000542,15.8742115 C5.11000542,15.8742115 4.39811555,15.6897159 4.04318093,15.4402695 C3.81371838,15.2790043 3.3568139,14.6420767 3.3568139,14.6420767 C3.3568139,14.6420767 6.49122316,10.5857407 7.98779474,8.45628498 C9.1306662,6.83010535 11.275143,3.37517056 11.275143,3.37517056 L8.62740507,3.75448433 C8.62740507,3.75448433 8.49872342,3.04557785 8.46414143,2.61904834 C8.44430221,2.37435404 8.46414143,1.74081289 8.46414143,1.74081289 C8.46414143,1.74081289 8.89285555,1.47510974 9.17255694,1.4003406 C9.90943207,1.20336084 11.513871,0.925566214 11.513871,0.925566214 L14.2252965,0.572792098 C14.4855929,0.502631507 14.8248048,2.03402058 14.8248048,2.03402058 C14.8248048,2.03402058 15.1102652,3.16021075 15.2123562,3.62372396 C15.3310416,4.16257845 15.487134,5.04112367 15.487134,5.04112367 C15.487134,5.04112367 15.0046644,5.52397664 14.7270382,5.59880834 C14.3149926,5.70987158 13.4181187,5.59880848 13.4181187,5.59880848 L13.1264492,4.46769902 C13.1264492,4.46769902 10.979851,8.07682028 9.82936062,9.7138408 Z" id="Path-44" sketch:type="MSShapeGroup"></path>
            </g>
            <g id="arrow1" sketch:type="MSLayerGroup" transform="translate(130.509334, 579.633490) rotate(51.000000) translate(-130.509334, -579.633490) translate(123.009334, 569.633490)" fill="#D8D8D8">
                <ellipse id="Oval-4" sketch:type="MSShapeGroup" cx="2.14285714" cy="17.5" rx="2.14285714" ry="2.5"></ellipse>
                <path d="M8.82936062,9.7138408 C7.30770307,11.8789911 4.11000542,15.8742115 4.11000542,15.8742115 C4.11000542,15.8742115 3.39811555,15.6897159 3.04318093,15.4402695 C2.81371838,15.2790043 2.3568139,14.6420767 2.3568139,14.6420767 C2.3568139,14.6420767 5.49122316,10.5857407 6.98779474,8.45628498 C8.1306662,6.83010535 10.275143,3.37517056 10.275143,3.37517056 L7.62740507,3.75448433 C7.62740507,3.75448433 7.49872342,3.04557785 7.46414143,2.61904834 C7.44430221,2.37435404 7.46414143,1.74081289 7.46414143,1.74081289 C7.46414143,1.74081289 7.89285555,1.47510974 8.17255694,1.4003406 C8.90943207,1.20336084 10.513871,0.925566214 10.513871,0.925566214 L13.2252965,0.572792098 C13.4855929,0.502631507 13.8248048,2.03402058 13.8248048,2.03402058 C13.8248048,2.03402058 14.1102652,3.16021075 14.2123562,3.62372396 C14.3310416,4.16257845 14.487134,5.04112367 14.487134,5.04112367 C14.487134,5.04112367 14.0046644,5.52397664 13.7270382,5.59880834 C13.3149926,5.70987158 12.4181187,5.59880848 12.4181187,5.59880848 L12.1264492,4.46769902 C12.1264492,4.46769902 9.97985101,8.07682028 8.82936062,9.7138408 Z" id="Path-44" sketch:type="MSShapeGroup"></path>
            </g>
            <g id="arrow6" sketch:type="MSLayerGroup" transform="translate(373.000000, 592.000000)" fill="#D8D8D8">
                <ellipse id="Oval-4" sketch:type="MSShapeGroup" cx="2" cy="16.625" rx="2" ry="2.375"></ellipse>
                <path d="M8.24073658,9.22814876 C6.82052286,11.2850416 3.83600506,15.080501 3.83600506,15.080501 C3.83600506,15.080501 3.17157451,14.9052301 2.8403022,14.668256 C2.62613715,14.5150541 2.19969298,13.9099729 2.19969298,13.9099729 C2.19969298,13.9099729 5.12514162,10.0564537 6.52194175,8.03347073 C7.58862179,6.48860008 9.59013349,3.20641203 9.59013349,3.20641203 L7.1189114,3.56676011 C7.1189114,3.56676011 6.99880853,2.89329896 6.966532,2.48809592 C6.94801539,2.25563634 6.966532,1.65377225 6.966532,1.65377225 C6.966532,1.65377225 7.36666518,1.40135425 7.62771981,1.33032357 C8.31546993,1.1431928 9.81294625,0.879287904 9.81294625,0.879287904 L12.3436101,0.544152493 C12.5865533,0.477499932 12.9031511,1.93231955 12.9031511,1.93231955 C12.9031511,1.93231955 13.1695808,3.00220021 13.2648658,3.44253777 C13.3756388,3.95444953 13.5213251,4.78906749 13.5213251,4.78906749 C13.5213251,4.78906749 13.0710201,5.24777781 12.8119023,5.31886792 C12.4273264,5.424378 11.5902441,5.31886806 11.5902441,5.31886806 L11.3180193,4.24431407 C11.3180193,4.24431407 9.31452761,7.67297927 8.24073658,9.22814876 Z" id="Path-44" sketch:type="MSShapeGroup"></path>
            </g>
            <g id="arrow5" sketch:type="MSLayerGroup" transform="translate(421.441990, 501.374261) rotate(-37.000000) translate(-421.441990, -501.374261) translate(413.941990, 491.374261)" fill="#D8D8D8">
                <ellipse id="Oval-4" sketch:type="MSShapeGroup" cx="2.14285714" cy="17.5" rx="2.14285714" ry="2.5"></ellipse>
                <path d="M8.82936062,9.7138408 C7.30770307,11.8789911 4.11000542,15.8742115 4.11000542,15.8742115 C4.11000542,15.8742115 3.39811555,15.6897159 3.04318093,15.4402695 C2.81371838,15.2790043 2.3568139,14.6420767 2.3568139,14.6420767 C2.3568139,14.6420767 5.49122316,10.5857407 6.98779474,8.45628498 C8.1306662,6.83010535 10.275143,3.37517056 10.275143,3.37517056 L7.62740507,3.75448433 C7.62740507,3.75448433 7.49872342,3.04557785 7.46414143,2.61904834 C7.44430221,2.37435404 7.46414143,1.74081289 7.46414143,1.74081289 C7.46414143,1.74081289 7.89285555,1.47510974 8.17255694,1.4003406 C8.90943207,1.20336084 10.513871,0.925566214 10.513871,0.925566214 L13.2252965,0.572792098 C13.4855929,0.502631507 13.8248048,2.03402058 13.8248048,2.03402058 C13.8248048,2.03402058 14.1102652,3.16021075 14.2123562,3.62372396 C14.3310416,4.16257845 14.487134,5.04112367 14.487134,5.04112367 C14.487134,5.04112367 14.0046644,5.52397664 13.7270382,5.59880834 C13.3149926,5.70987158 12.4181187,5.59880848 12.4181187,5.59880848 L12.1264492,4.46769902 C12.1264492,4.46769902 9.97985101,8.07682028 8.82936062,9.7138408 Z" id="Path-44" sketch:type="MSShapeGroup"></path>
            </g>
            <g id="arrow4" sketch:type="MSLayerGroup" transform="translate(383.371572, 349.334565) rotate(-48.000000) translate(-383.371572, -349.334565) translate(374.371572, 336.834565)" fill="#D8D8D8">
                <ellipse id="Oval-4" sketch:type="MSShapeGroup" cx="2.57142857" cy="21" rx="2.57142857" ry="3"></ellipse>
                <path d="M10.5952327,11.656609 C8.76924368,14.2547893 4.93200651,19.0490538 4.93200651,19.0490538 C4.93200651,19.0490538 4.07773866,18.8276591 3.65181712,18.5283234 C3.37646205,18.3348052 2.82817668,17.570492 2.82817668,17.570492 C2.82817668,17.570492 6.58946779,12.7028889 8.38535368,10.147542 C9.75679944,8.19612642 12.3301716,4.05020467 12.3301716,4.05020467 L9.15288609,4.50538119 C9.15288609,4.50538119 8.9984681,3.65469342 8.95696972,3.142858 C8.93316265,2.84922485 8.95696972,2.08897547 8.95696972,2.08897547 C8.95696972,2.08897547 9.47142667,1.77013168 9.80706833,1.68040873 C10.6913185,1.44403301 12.6166452,1.11067946 12.6166452,1.11067946 L15.8703558,0.687350517 C16.1827114,0.603157809 16.5897657,2.44082469 16.5897657,2.44082469 C16.5897657,2.44082469 16.9323182,3.7922529 17.0548275,4.34846876 C17.1972499,4.99509414 17.3845608,6.04934841 17.3845608,6.04934841 C17.3845608,6.04934841 16.8055973,6.62877197 16.4724458,6.71857 C15.9779911,6.85184589 14.9017424,6.71857018 14.9017424,6.71857018 L14.5517391,5.36123882 C14.5517391,5.36123882 11.9758212,9.69218434 10.5952327,11.656609 Z" id="Path-44" sketch:type="MSShapeGroup"></path>
            </g>
            <path d="M400.022109,522.616436 L402.399966,521.307759 M397.751541,513.807741 L400.451711,513.5322 M399.098777,504.441112 L401.70555,505.197136 M403.014824,495.899783 L405.118969,497.614255 M407.883564,489.522109 L409.192241,491.899966 M417.692259,484.251541 L417.9678,486.951711 M428.058888,483.598777 L427.302864,486.20555 M437.600217,489.514824 L435.885745,491.618969 M442.977891,497.383564 L440.600034,498.692241 M444.248459,506.192259 L441.548289,506.4678 M443.901223,515.558888 L441.29445,514.802864 M439.999976,523.081725 L437.86623,521.404237 M435.116436,529.477891 L433.807759,527.100034" id="ticks" sketch:type="MSShapeGroup"></path>
            <g id="ticks" sketch:type="MSLayerGroup" transform="translate(158.000000, 290.000000)">
                <path d="M4.54202637,55.3059485 L7.91735149,53.5245016" id="Path-42" sketch:type="MSShapeGroup"></path>
                <path d="M1.26776979,47.0979991 L5.06876648,45.923874" id="Path-43" sketch:type="MSShapeGroup"></path>
                <path d="M0.538892595,39.9722116 L3.87961768,39.5770427" id="Path-44" sketch:type="MSShapeGroup"></path>
                <path d="M1.45033054,31.282138 L4.34580771,31.7273859" id="Path-45" sketch:type="MSShapeGroup"></path>
                <path d="M4.99865587,21.9282898 L7.13475318,22.89527" id="Path-46" sketch:type="MSShapeGroup"></path>
                <path d="M9.93917761,13.1931451 L12.2728594,15.1462264" id="Path-47" sketch:type="MSShapeGroup"></path>
                <path d="M16.5236566,7.70129901 L18.5887328,10.1305861" id="Path-48" sketch:type="MSShapeGroup"></path>
                <path d="M25.3903726,3.04531708 L26.2408052,5.54562536" id="Path-49" sketch:type="MSShapeGroup"></path>
                <path d="M34.556652,0.823630188 L34.556652,3.7336758" id="Path-50" sketch:type="MSShapeGroup"></path>
                <path d="M45.4019441,2.1092949 L44.2833611,5.08080111" id="Path-51" sketch:type="MSShapeGroup"></path>
                <path d="M49.7342335,7.90525715 L51.5816936,5.7432098" id="Path-52" sketch:type="MSShapeGroup"></path>
                <path d="M53.6271934,11.6803038 L56.0869833,9.82282788" id="Path-53" sketch:type="MSShapeGroup"></path>
                <path d="M57.7873932,15.7499061 L59.6043507,14.418715" id="Path-54" sketch:type="MSShapeGroup"></path>
                <path d="M60.1611382,21.6865448 L62.9500836,21.1247494" id="Path-55" sketch:type="MSShapeGroup"></path>
                <path d="M61.0926077,29.2525724 L64.1952299,29.1360249" id="Path-56" sketch:type="MSShapeGroup"></path>
                <path d="M59.6658113,38.9902078 L63.775932,40.0332169" id="Path-57" sketch:type="MSShapeGroup"></path>
                <path d="M57.681772,46.5220906 L61.2606,48.0458582" id="Path-58" sketch:type="MSShapeGroup"></path>
            </g>
            <path d="M358.77805,374.871422 L362.308253,372.670747 M354.962559,369.153286 L358.873165,367.734672 M353.499123,362.652225 L357.608564,362.005854 M351.978609,356.630009 L356.132637,356.852164 M351.877256,350.339068 L355.912574,351.349767 M354.016338,342.326375 L357.753338,344.153978 M357.306245,335.875486 L360.581603,338.440117 M362.584022,330.234127 L365.309848,333.376606 M368.723535,326.54079 L370.736436,330.18133 M375.491256,324.976146 L376.70326,328.955638 M382.613808,324.649103 L383.044222,328.786741 M389.910226,325.599886 L389.470971,329.736595 M395.052287,327.830437 L393.831781,331.807329 M399.858196,330.304626 L397.837519,333.940856 M405.053021,333.917172 L402.320485,337.053819 M409.401033,338.490661 L406.120201,341.048286 M412.773113,343.889483 L409.032215,345.709095 M415.993941,349.832829 L411.974575,350.905213 M417.997426,356.144006 L413.842932,356.357282 M378.970625,389.913224 L379.839877,385.845091 M372.983093,387.056763 L374.612611,383.229235 M367.454227,383.997627 L369.843924,380.592535 M362.671957,379.895275 L365.667471,377.00872" id="ticks" sketch:type="MSShapeGroup"></path>
            <g id="ticks" sketch:type="MSLayerGroup" transform="translate(80.000000, 424.000000)">
                <path d="M23.428089,0.263160483 L23.2611288,4.9400038" id="Path-82" sketch:type="MSShapeGroup"></path>
                <path d="M12.4876279,2.0397218 L13.8004832,5.44088453" id="Path-83" sketch:type="MSShapeGroup"></path>
                <path d="M4.82441368,7.88398243 L7.07250724,10.2403393" id="Path-84" sketch:type="MSShapeGroup"></path>
                <path d="M0.604754456,17.8031165 L3.19329038,18.6594399" id="Path-85" sketch:type="MSShapeGroup"></path>
                <path d="M30.6132491,2.67951866 L29.0545187,6.32655643" id="Path-86" sketch:type="MSShapeGroup"></path>
                <path d="M38.5823396,8.00855042 L36.2181565,10.0890316" id="Path-87" sketch:type="MSShapeGroup"></path>
                <path d="M43.6420176,15.6430683 L39.5964927,16.2743867" id="Path-88" sketch:type="MSShapeGroup"></path>
                <path d="M45.5861913,24.9093617 L40.9530446,24.9093617" id="Path-89" sketch:type="MSShapeGroup"></path>
                <path d="M1.29542202,29.0272795 L3.78221655,28.0483447" id="Path-90" sketch:type="MSShapeGroup"></path>
                <path d="M22.244367,146.827513 L25.0213854,148.857123" id="Path-91" sketch:type="MSShapeGroup"></path>
                <path d="M29.5384425,140.373456 L31.5100082,142.737639" id="Path-92" sketch:type="MSShapeGroup"></path>
                <path d="M39.0499588,137.285343 L39.0499588,139.939098" id="Path-93" sketch:type="MSShapeGroup"></path>
                <path d="M47.9471135,137.357736 L47.0770941,140.011491" id="Path-94" sketch:type="MSShapeGroup"></path>
                <path d="M55.943596,141.092167 L54.6816113,143.391132" id="Path-95" sketch:type="MSShapeGroup"></path>
                <path d="M61.2654537,146.28424 L58.9156187,147.662314" id="Path-96" sketch:type="MSShapeGroup"></path>
                <path d="M65.5575058,154.143763 L62.896577,154.767907" id="Path-97" sketch:type="MSShapeGroup"></path>
                <path d="M66.1888242,161.430664 L63.3609351,161.25653" id="Path-98" sketch:type="MSShapeGroup"></path>
                <path d="M273.901108,174.424766 L277.658876,175.320801" id="Path-99" sketch:type="MSShapeGroup"></path>
                <path d="M279.864859,164.421104 L282.459176,166.687547" id="Path-100" sketch:type="MSShapeGroup"></path>
                <path d="M288.585703,159.276651 L289.32749,162.422077" id="Path-101" sketch:type="MSShapeGroup"></path>
                <path d="M297.979347,158.234119 L297.56621,161.457056" id="Path-102" sketch:type="MSShapeGroup"></path>
                <path d="M306.931951,161.64696 L305.493333,163.690169" id="Path-103" sketch:type="MSShapeGroup"></path>
                <path d="M310.698245,169.153969 L313.370074,167.731629" id="Path-104" sketch:type="MSShapeGroup"></path>
                <path d="M313.146065,177.280298 L316.8519,176.529984" id="Path-105" sketch:type="MSShapeGroup"></path>
                <path d="M312.708124,187.084755 L316.603087,188.386176" id="Path-106" sketch:type="MSShapeGroup"></path>
            </g>
        </g>
    </g>
</svg>