<?xml version="1.0" encoding="UTF-8" standalone="no"?>
<svg width="390px" height="364px" viewBox="0 0 390 364" version="1.1" xmlns="http://www.w3.org/2000/svg" xmlns:xlink="http://www.w3.org/1999/xlink" xmlns:sketch="http://www.bohemiancoding.com/sketch/ns">
    <!-- Generator: Sketch 3.3.2 (12043) - http://www.bohemiancoding.com/sketch -->
    <title>logo-4</title>
    <desc>Created with Sketch.</desc>
    <defs></defs>
    <g id="Welcome" stroke="none" stroke-width="1" fill="none" fill-rule="evenodd" sketch:type="MSPage">
        <g id="Desktop" sketch:type="MSArtboardGroup" transform="translate(-64.000000, -279.000000)" stroke="#979797">
            <path d="M229.359508,596.745723 C229.359508,596.745723 247.464542,600 257,600 C272.29725,600 295.371791,600.675322 311.380249,592.602371 C329.818228,583.304231 340.197589,565.084128 340.197589,565.084128 C340.197589,565.084128 354.278248,549.683927 361.947433,534.277115 C367.34643,523.430939 366.454754,514.339771 368.773532,502.970202 C369.554916,499.138873 370,495.44466 370,492 C370,475.190798 367.436353,454.006576 360.268356,439.820633 C352.81786,425.075604 340.509825,417.467611 327.22733,407.38421 C307.943423,392.744839 283.540224,384 257,384 C229.702533,384 200.331724,391.983576 180.800568,407.384211 C155.679088,427.192907 144,458.442861 144,492 C144,500.946543 144.654702,514.72833 147.136,523.81752 C148.706396,529.570004 150.918544,534.957733 150.918544,534.957733 C150.918544,534.957733 156.092535,546.214314 164.836504,556.548462 C174.150679,567.556514 187.369349,577.860707 197.756058,583.984523 C190.824789,611.268462 177.294987,615.618989 177.294987,615.618989 C177.072574,615.615772 194.053601,627.736685 229.359508,596.745723 Z" id="Oval-3" stroke-width="4" fill="#F6F6F6" sketch:type="MSShapeGroup"></path>
            <path d="M255.472408,525.28397 C254.066998,525.632638 252.773303,526.330235 251.240148,525.851772 C250.056779,518.122227 250.444661,511.822558 250.056779,503.983601 C249.988924,502.612274 249.591187,498.171452 249.591187,498.171452 C249.591187,498.171452 248.503767,495.214073 247.826864,490.512239 C247.050642,485.120524 246.627263,477.641663 245.838005,473.197454 C245.335078,470.365541 243.649818,464.716395 243.649818,464.716395 C243.649818,464.716395 242.4107,458.516605 241.889507,455.310371 C241.611626,453.600924 241.430751,451.125823 241.109023,448.848195 C240.679561,445.807884 240.139802,443.123742 240.139802,443.123742 C240.139802,443.123742 239.893153,441.351447 240.139802,440.108343 C240.34534,439.072438 241.496363,436.286714 241.496363,436.286714 C241.496363,436.286714 241.793765,433.966121 242.448882,432.683909 C242.970871,431.662259 245.027681,429.375128 245.027681,429.375128 C245.027681,429.375128 246.886658,428.508313 247.826863,428.170697 C248.795784,427.82277 250.75506,427.318501 250.75506,427.318501 C250.75506,427.318501 253.533096,427.108227 254.919634,427.318501 C256.138094,427.503285 258.570051,428.503676 258.570051,428.503676 C258.570051,428.503676 261.009047,429.186368 262.220031,429.68278 C262.680622,429.871588 263.584776,430.559335 263.584776,430.559335 L267.19162,437.213358 C267.19162,437.213358 268.839211,441.682153 269.381493,444.361113 C269.67516,445.811869 269.699466,449.602506 269.699466,449.602506 C269.699466,449.602506 268.727093,458.426805 268.070291,462.765428 C267.35278,467.505079 265.576528,476.83733 265.576528,476.83733 C265.576528,476.83733 264.922225,482.234663 264.327731,484.862297 C263.146076,490.085158 260.248081,500.388814 260.248081,500.388814 L256.028315,524.544506 C256.028315,524.544506 255.75697,525.213373 255.472408,525.28397 Z" id="Path-4" fill="#D7D7D7" sketch:type="MSShapeGroup"></path>
            <path d="M254,550 C254.687013,550 255.978211,549.736812 255.978211,549.736812 C255.978211,549.736812 257.499042,548.659078 258.125055,547.781316 C259.220684,546.245086 260.216682,544.179731 260.216682,542.421571 C260.216682,541.212184 260.244185,540.656022 258.914383,538.828011 C257.58458,537 256.563576,537 254,537 C250.134007,537 247,539.910149 247,543.5 C247,547.089851 250.134007,550 254,550 Z" id="Oval-3" fill="#D7D6D7" sketch:type="MSShapeGroup"></path>
            <g id="meter" sketch:type="MSLayerGroup" transform="translate(94.000000, 531.000000)" fill="#D8D8D8">
                <path d="M38.9249564,21.858217 C44.3561316,10.9976128 51.1384384,8.74833132 51.1384384,8.74833132 L47.4674005,3.78713306 L53.6480336,0.50083212 L61.6290502,15.5109412 L55.448417,18.7972421 L53.0705899,14.3251998 C53.530899,14.073497 48.5149365,16.504751 45.1605826,24.2950169 L47.5446326,25.2266719 L46.5990984,31.9545104 C54.1351995,37.7851831 58.4186825,47.067145 57.0520163,56.7914806 C54.9767104,71.5580493 40.6586363,81.7528857 25.0717026,79.562285 C9.48476896,77.3716844 -1.46856952,63.6251825 0.606736378,48.8586138 C2.68204227,34.0920451 17.0001164,23.8972087 32.5870501,26.0878093 C32.8518199,26.1250203 33.1152528,26.1655657 33.3773075,26.2093939 L35.6286904,20.57008 L38.9249564,21.858217 Z M25.2724341,74.5413581 C38.3982729,76.3860745 50.4408409,67.905955 52.1702625,55.600481 C53.8996841,43.2950071 44.6610625,31.8240114 31.5352236,29.9792951 C18.4093848,28.1345787 6.36681678,36.6146982 4.6373952,48.9201722 C2.90797363,61.2256461 12.1465952,72.6966418 25.2724341,74.5413581 L25.2724341,74.5413581 Z" id="Path-5" sketch:type="MSShapeGroup"></path>
            </g>
            <g id="meter-copy" sketch:type="MSLayerGroup" transform="translate(113.347349, 441.187772) rotate(47.000000) translate(-113.347349, -441.187772) translate(82.347349, 401.187772)" fill="#D8D8D8">
                <path d="M38.9249564,21.858217 C44.3561316,10.9976128 51.1384384,8.74833132 51.1384384,8.74833132 L47.4674005,3.78713306 L53.6480336,0.50083212 L61.6290502,15.5109412 L55.448417,18.7972421 L53.0705899,14.3251998 C53.530899,14.073497 48.5149365,16.504751 45.1605826,24.2950169 L47.5446326,25.2266719 L46.5990984,31.9545104 C54.1351995,37.7851831 58.4186825,47.067145 57.0520163,56.7914806 C54.9767104,71.5580493 40.6586363,81.7528857 25.0717026,79.562285 C9.48476896,77.3716844 -1.46856952,63.6251825 0.606736378,48.8586138 C2.68204227,34.0920451 17.0001164,23.8972087 32.5870501,26.0878093 C32.8518199,26.1250203 33.1152528,26.1655657 33.3773075,26.2093939 L35.6286904,20.57008 L38.9249564,21.858217 Z M25.2724341,74.5413581 C38.3982729,76.3860745 50.4408409,67.905955 52.1702625,55.600481 C53.8996841,43.2950071 44.6610625,31.8240114 31.5352236,29.9792951 C18.4093848,28.1345787 6.36681678,36.6146982 4.6373952,48.9201722 C2.90797363,61.2256461 12.1465952,72.6966418 25.2724341,74.5413581 L25.2724341,74.5413581 Z" id="Path-5" sketch:type="MSShapeGroup"></path>
            </g>
            <g id="meter-copy-2" sketch:type="MSLayerGroup" transform="translate(362.430172, 605.368265) rotate(-100.000000) translate(-362.430172, -605.368265) translate(331.430172, 565.368265)" fill="#D8D8D8">
                <path d="M38.9249564,21.858217 C44.3561316,10.9976128 51.1384384,8.74833132 51.1384384,8.74833132 L47.4674005,3.78713306 L53.6480336,0.50083212 L61.6290502,15.5109412 L55.448417,18.7972421 L53.0705899,14.3251998 C53.530899,14.073497 48.5149365,16.504751 45.1605826,24.2950169 L47.5446326,25.2266719 L46.5990984,31.9545104 C54.1351995,37.7851831 58.4186825,47.067145 57.0520163,56.7914806 C54.9767104,71.5580493 40.6586363,81.7528857 25.0717026,79.562285 C9.48476896,77.3716844 -1.46856952,63.6251825 0.606736378,48.8586138 C2.68204227,34.0920451 17.0001164,23.8972087 32.5870501,26.0878093 C32.8518199,26.1250203 33.1152528,26.1655657 33.3773075,26.2093939 L35.6286904,20.57008 L38.9249564,21.858217 Z M25.2724341,74.5413581 C38.3982729,76.3860745 50.4408409,67.905955 52.1702625,55.600481 C53.8996841,43.2950071 44.6610625,31.8240114 31.5352236,29.9792951 C18.4093848,28.1345787 6.36681678,36.6146982 4.6373952,48.9201722 C2.90797363,61.2256461 12.1465952,72.6966418 25.2724341,74.5413581 L25.2724341,74.5413581 Z" id="Path-5" sketch:type="MSShapeGroup"></path>
            </g>
            <path d="M217.351691,308.896811 C225.487639,293.613208 235.714361,290.455966 235.714361,290.455966 L230.226926,283.552422 L239.465681,278.97951 L251.395634,299.866188 L242.156879,304.4391 L238.602524,298.21622 C239.296397,297.863018 231.665619,301.306458 226.652289,312.365382 L229.954398,313.59689 L228.63868,322.958727 C239.971497,331.191088 246.497964,344.186548 244.596238,357.718034 C241.708434,378.265824 220.479665,392.2686 197.180456,388.99411 C173.881246,385.71962 157.334532,366.407845 160.222335,345.860055 C163.110139,325.312265 184.338908,311.309489 207.638117,314.583979 C208.033893,314.639602 208.42772,314.699852 208.819537,314.764657 L212.100108,306.938275 L217.351691,308.896811 Z M197.373509,382.007453 C216.993897,384.764918 234.850219,373.119223 237.256722,355.996065 C239.663225,338.872906 225.708615,322.756476 206.088228,319.99901 C186.467841,317.241545 168.611518,328.88724 166.205015,346.010398 C163.798512,363.133557 177.753122,379.249987 197.373509,382.007453 L197.373509,382.007453 Z" id="Path-5" fill="#D8D8D8" sketch:type="MSShapeGroup" transform="translate(205.599229, 334.192914) rotate(106.000000) translate(-205.599229, -334.192914) "></path>
            <path d="M383.312148,366.27366 C398.947055,369.486165 409.184638,362.379549 409.184638,362.379549 L403.697203,355.476005 L412.935959,350.903093 L424.865911,371.789771 L415.627156,376.362684 L412.072801,370.139803 C412.775903,369.781903 401.518899,376.852655 383.863699,375.120443 C383.863699,375.120443 383.86215,375.112563 383.859151,375.097268 L384.074889,378.577294 L374.987274,381.183128 C372.07611,394.884574 362.858719,406.132528 349.723591,409.898966 C329.777675,415.618365 308.350984,401.920362 301.865737,379.303619 C295.380491,356.686877 306.292519,333.715895 326.238435,327.996496 C346.184351,322.277097 367.611042,335.9751 374.096289,358.591842 C374.206451,358.976025 374.311594,359.36031 374.411758,359.744611 L382.895841,359.558285 L383.312148,366.27366 Z M347.065397,402.671032 C363.686994,397.904866 372.734234,378.601553 367.272974,359.555875 C361.811714,340.510197 343.910021,328.934365 327.288425,333.700532 C310.666828,338.466698 301.619588,357.770011 307.080848,376.815689 C312.542108,395.861367 330.443801,407.437199 347.065397,402.671032 Z" id="Path-5-Copy" fill="#D8D8D8" sketch:type="MSShapeGroup" transform="translate(362.430172, 368.947731) rotate(153.000000) translate(-362.430172, -368.947731) "></path>
            <path d="M421.709876,496.703696 C433.185245,499.061541 440.699204,493.845582 440.699204,493.845582 L436.671656,488.778668 L443.452517,485.422341 L452.208605,500.752292 L445.427744,504.108619 L442.818996,499.541284 C443.335043,499.278601 435.072872,504.468237 422.114691,503.196866 C422.114691,503.196866 422.113554,503.191083 422.111353,503.179857 L422.269696,505.73405 L415.599766,507.646624 C413.463093,517.702914 406.697912,525.958443 397.057275,528.722851 C382.417805,532.920652 366.691507,522.866889 361.931607,506.267143 C357.171706,489.667397 365.18068,472.807655 379.820151,468.609854 C394.459621,464.412054 410.185919,474.465817 414.945819,491.065562 C415.026674,491.347537 415.103844,491.629586 415.177361,491.911647 L421.404324,491.774891 L421.709876,496.703696 Z M395.106273,523.41785 C407.305831,519.919683 413.946128,505.751855 409.937791,491.773122 C405.929454,477.794389 392.790358,469.298211 380.590799,472.796379 C368.391241,476.294546 361.750944,490.462373 365.759281,504.441106 C369.767618,518.419839 382.906714,526.916017 395.106273,523.41785 Z" id="Path-5-Copy-2" fill="#D8D8D8" sketch:type="MSShapeGroup" transform="translate(406.383376, 498.666353) rotate(214.000000) translate(-406.383376, -498.666353) "></path>
            <g id="arrow3" sketch:type="MSLayerGroup" transform="translate(186.000000, 307.000000)">
                <ellipse id="Oval-4" fill="#D8D8D8" sketch:type="MSShapeGroup" cx="3" cy="24.5" rx="3" ry="3.5"></ellipse>
                <path d="M12.3611049,13.5993771 C10.2307843,16.6305876 5.75400759,22.2238961 5.75400759,22.2238961 C5.75400759,22.2238961 4.75736177,21.9656023 4.2604533,21.6163773 C3.93920573,21.390606 3.29953946,20.4989074 3.29953946,20.4989074 C3.29953946,20.4989074 7.68771242,14.820037 9.78291263,11.838799 C11.3829327,9.56214749 14.3852002,4.72523879 14.3852002,4.72523879 L10.6783671,5.25627806 C10.6783671,5.25627806 10.4982128,4.26380899 10.449798,3.66666767 C10.4220231,3.32409565 10.449798,2.43713805 10.449798,2.43713805 C10.449798,2.43713805 11.0499978,2.06515363 11.4415797,1.96047685 C12.4732049,1.68470518 14.7194194,1.2957927 14.7194194,1.2957927 L18.5154151,0.801908937 C18.87983,0.70368411 19.3547267,2.84762881 19.3547267,2.84762881 C19.3547267,2.84762881 19.7543712,4.42429505 19.8972987,5.07321355 C20.0634582,5.82760983 20.2819876,7.05757314 20.2819876,7.05757314 C20.2819876,7.05757314 19.6065301,7.7335673 19.2178534,7.83833167 C18.6409897,7.99382021 17.3853662,7.83833188 17.3853662,7.83833188 L16.9770289,6.25477863 C16.9770289,6.25477863 13.9717914,11.3075484 12.3611049,13.5993771 Z" id="Path-44" sketch:type="MSShapeGroup"></path>
            </g>
            <g id="arrow2" sketch:type="MSLayerGroup" transform="translate(94.837741, 446.883174) rotate(-121.000000) translate(-94.837741, -446.883174) translate(87.337741, 436.883174)">
                <ellipse id="Oval-4" fill="#D8D8D8" sketch:type="MSShapeGroup" cx="2.14285714" cy="17.5" rx="2.14285714" ry="2.5"></ellipse>
                <path d="M8.82936062,9.7138408 C7.30770307,11.8789911 4.11000542,15.8742115 4.11000542,15.8742115 C4.11000542,15.8742115 3.39811555,15.6897159 3.04318093,15.4402695 C2.81371838,15.2790043 2.3568139,14.6420767 2.3568139,14.6420767 C2.3568139,14.6420767 5.49122316,10.5857407 6.98779474,8.45628498 C8.1306662,6.83010535 10.275143,3.37517056 10.275143,3.37517056 L7.62740507,3.75448433 C7.62740507,3.75448433 7.49872342,3.04557785 7.46414143,2.61904834 C7.44430221,2.37435404 7.46414143,1.74081289 7.46414143,1.74081289 C7.46414143,1.74081289 7.89285555,1.47510974 8.17255694,1.4003406 C8.90943207,1.20336084 10.513871,0.925566214 10.513871,0.925566214 L13.2252965,0.572792098 C13.4855929,0.502631507 13.8248048,2.03402058 13.8248048,2.03402058 C13.8248048,2.03402058 14.1102652,3.16021075 14.2123562,3.62372396 C14.3310416,4.16257845 14.487134,5.04112367 14.487134,5.04112367 C14.487134,5.04112367 14.0046644,5.52397664 13.7270382,5.59880834 C13.3149926,5.70987158 12.4181187,5.59880848 12.4181187,5.59880848 L12.1264492,4.46769902 C12.1264492,4.46769902 9.97985101,8.07682028 8.82936062,9.7138408 Z" id="Path-44" sketch:type="MSShapeGroup"></path>
            </g>
            <g id="arrow1" sketch:type="MSLayerGroup" transform="translate(130.509334, 579.633490) rotate(51.000000) translate(-130.509334, -579.633490) translate(123.009334, 569.633490)">
                <ellipse id="Oval-4" fill="#D8D8D8" sketch:type="MSShapeGroup" cx="2.14285714" cy="17.5" rx="2.14285714" ry="2.5"></ellipse>
                <path d="M8.82936062,9.7138408 C7.30770307,11.8789911 4.11000542,15.8742115 4.11000542,15.8742115 C4.11000542,15.8742115 3.39811555,15.6897159 3.04318093,15.4402695 C2.81371838,15.2790043 2.3568139,14.6420767 2.3568139,14.6420767 C2.3568139,14.6420767 5.49122316,10.5857407 6.98779474,8.45628498 C8.1306662,6.83010535 10.275143,3.37517056 10.275143,3.37517056 L7.62740507,3.75448433 C7.62740507,3.75448433 7.49872342,3.04557785 7.46414143,2.61904834 C7.44430221,2.37435404 7.46414143,1.74081289 7.46414143,1.74081289 C7.46414143,1.74081289 7.89285555,1.47510974 8.17255694,1.4003406 C8.90943207,1.20336084 10.513871,0.925566214 10.513871,0.925566214 L13.2252965,0.572792098 C13.4855929,0.502631507 13.8248048,2.03402058 13.8248048,2.03402058 C13.8248048,2.03402058 14.1102652,3.16021075 14.2123562,3.62372396 C14.3310416,4.16257845 14.487134,5.04112367 14.487134,5.04112367 C14.487134,5.04112367 14.0046644,5.52397664 13.7270382,5.59880834 C13.3149926,5.70987158 12.4181187,5.59880848 12.4181187,5.59880848 L12.1264492,4.46769902 C12.1264492,4.46769902 9.97985101,8.07682028 8.82936062,9.7138408 Z" id="Path-44" sketch:type="MSShapeGroup"></path>
            </g>
            <g id="arrow6" sketch:type="MSLayerGroup" transform="translate(373.000000, 592.000000)">
                <ellipse id="Oval-4" fill="#D8D8D8" sketch:type="MSShapeGroup" cx="2" cy="16.625" rx="2" ry="2.375"></ellipse>
                <path d="M8.24073658,9.22814876 C6.82052286,11.2850416 3.83600506,15.080501 3.83600506,15.080501 C3.83600506,15.080501 3.17157451,14.9052301 2.8403022,14.668256 C2.62613715,14.5150541 2.19969298,13.9099729 2.19969298,13.9099729 C2.19969298,13.9099729 5.12514162,10.0564537 6.52194175,8.03347073 C7.58862179,6.48860008 9.59013349,3.20641203 9.59013349,3.20641203 L7.1189114,3.56676011 C7.1189114,3.56676011 6.99880853,2.89329896 6.966532,2.48809592 C6.94801539,2.25563634 6.966532,1.65377225 6.966532,1.65377225 C6.966532,1.65377225 7.36666518,1.40135425 7.62771981,1.33032357 C8.31546993,1.1431928 9.81294625,0.879287904 9.81294625,0.879287904 L12.3436101,0.544152493 C12.5865533,0.477499932 12.9031511,1.93231955 12.9031511,1.93231955 C12.9031511,1.93231955 13.1695808,3.00220021 13.2648658,3.44253777 C13.3756388,3.95444953 13.5213251,4.78906749 13.5213251,4.78906749 C13.5213251,4.78906749 13.0710201,5.24777781 12.8119023,5.31886792 C12.4273264,5.424378 11.5902441,5.31886806 11.5902441,5.31886806 L11.3180193,4.24431407 C11.3180193,4.24431407 9.31452761,7.67297927 8.24073658,9.22814876 Z" id="Path-44" sketch:type="MSShapeGroup"></path>
            </g>
            <g id="arrow5" sketch:type="MSLayerGroup" transform="translate(421.441990, 501.374261) rotate(-37.000000) translate(-421.441990, -501.374261) translate(413.941990, 491.374261)">
                <ellipse id="Oval-4" fill="#D8D8D8" sketch:type="MSShapeGroup" cx="2.14285714" cy="17.5" rx="2.14285714" ry="2.5"></ellipse>
                <path d="M8.82936062,9.7138408 C7.30770307,11.8789911 4.11000542,15.8742115 4.11000542,15.8742115 C4.11000542,15.8742115 3.39811555,15.6897159 3.04318093,15.4402695 C2.81371838,15.2790043 2.3568139,14.6420767 2.3568139,14.6420767 C2.3568139,14.6420767 5.49122316,10.5857407 6.98779474,8.45628498 C8.1306662,6.83010535 10.275143,3.37517056 10.275143,3.37517056 L7.62740507,3.75448433 C7.62740507,3.75448433 7.49872342,3.04557785 7.46414143,2.61904834 C7.44430221,2.37435404 7.46414143,1.74081289 7.46414143,1.74081289 C7.46414143,1.74081289 7.89285555,1.47510974 8.17255694,1.4003406 C8.90943207,1.20336084 10.513871,0.925566214 10.513871,0.925566214 L13.2252965,0.572792098 C13.4855929,0.502631507 13.8248048,2.03402058 13.8248048,2.03402058 C13.8248048,2.03402058 14.1102652,3.16021075 14.2123562,3.62372396 C14.3310416,4.16257845 14.487134,5.04112367 14.487134,5.04112367 C14.487134,5.04112367 14.0046644,5.52397664 13.7270382,5.59880834 C13.3149926,5.70987158 12.4181187,5.59880848 12.4181187,5.59880848 L12.1264492,4.46769902 C12.1264492,4.46769902 9.97985101,8.07682028 8.82936062,9.7138408 Z" id="Path-44" sketch:type="MSShapeGroup"></path>
            </g>
            <g id="arrow4" sketch:type="MSLayerGroup" transform="translate(383.000000, 349.000000) rotate(-48.000000) translate(-383.000000, -349.000000) translate(374.000000, 337.000000)">
                <ellipse id="Oval-4" fill="#D8D8D8" sketch:type="MSShapeGroup" cx="2.57142857" cy="21" rx="2.57142857" ry="3"></ellipse>
                <path d="M10.5952327,11.656609 C8.76924368,14.2547893 4.93200651,19.0490538 4.93200651,19.0490538 C4.93200651,19.0490538 4.07773866,18.8276591 3.65181712,18.5283234 C3.37646205,18.3348052 2.82817668,17.570492 2.82817668,17.570492 C2.82817668,17.570492 6.58946779,12.7028889 8.38535368,10.147542 C9.75679944,8.19612642 12.3301716,4.05020467 12.3301716,4.05020467 L9.15288609,4.50538119 C9.15288609,4.50538119 8.9984681,3.65469342 8.95696972,3.142858 C8.93316265,2.84922485 8.95696972,2.08897547 8.95696972,2.08897547 C8.95696972,2.08897547 9.47142667,1.77013168 9.80706833,1.68040873 C10.6913185,1.44403301 12.6166452,1.11067946 12.6166452,1.11067946 L15.8703558,0.687350517 C16.1827114,0.603157809 16.5897657,2.44082469 16.5897657,2.44082469 C16.5897657,2.44082469 16.9323182,3.7922529 17.0548275,4.34846876 C17.1972499,4.99509414 17.3845608,6.04934841 17.3845608,6.04934841 C17.3845608,6.04934841 16.8055973,6.62877197 16.4724458,6.71857 C15.9779911,6.85184589 14.9017424,6.71857018 14.9017424,6.71857018 L14.5517391,5.36123882 C14.5517391,5.36123882 11.9758212,9.69218434 10.5952327,11.656609 Z" id="Path-44" sketch:type="MSShapeGroup"></path>
            </g>
            <path d="M400.022109,522.616436 L402.399966,521.307759 M397.751541,513.807741 L400.451711,513.5322 M399.098777,504.441112 L401.70555,505.197136 M403.014824,495.899783 L405.118969,497.614255 M407.883564,489.522109 L409.192241,491.899966 M417.692259,484.251541 L417.9678,486.951711 M428.058888,483.598777 L427.302864,486.20555 M437.600217,489.514824 L435.885745,491.618969 M442.977891,497.383564 L440.600034,498.692241 M444.248459,506.192259 L441.548289,506.4678 M443.901223,515.558888 L441.29445,514.802864 M439.999976,523.081725 L437.86623,521.404237 M435.116436,529.477891 L433.807759,527.100034" id="ticks" sketch:type="MSShapeGroup"></path>
            <g id="ticks" sketch:type="MSLayerGroup" transform="translate(158.000000, 290.000000)">
                <path d="M4.54202637,55.3059485 L7.91735149,53.5245016" id="Path-42" sketch:type="MSShapeGroup"></path>
                <path d="M1.26776979,47.0979991 L5.06876648,45.923874" id="Path-43" sketch:type="MSShapeGroup"></path>
                <path d="M0.538892595,39.9722116 L3.87961768,39.5770427" id="Path-44" sketch:type="MSShapeGroup"></path>
                <path d="M1.45033054,31.282138 L4.34580771,31.7273859" id="Path-45" sketch:type="MSShapeGroup"></path>
                <path d="M4.99865587,21.9282898 L7.13475318,22.89527" id="Path-46" sketch:type="MSShapeGroup"></path>
                <path d="M9.93917761,13.1931451 L12.2728594,15.1462264" id="Path-47" sketch:type="MSShapeGroup"></path>
                <path d="M16.5236566,7.70129901 L18.5887328,10.1305861" id="Path-48" sketch:type="MSShapeGroup"></path>
                <path d="M25.3903726,3.04531708 L26.2408052,5.54562536" id="Path-49" sketch:type="MSShapeGroup"></path>
                <path d="M34.556652,0.823630188 L34.556652,3.7336758" id="Path-50" sketch:type="MSShapeGroup"></path>
                <path d="M45.4019441,2.1092949 L44.2833611,5.08080111" id="Path-51" sketch:type="MSShapeGroup"></path>
                <path d="M49.7342335,7.90525715 L51.5816936,5.7432098" id="Path-52" sketch:type="MSShapeGroup"></path>
                <path d="M53.6271934,11.6803038 L56.0869833,9.82282788" id="Path-53" sketch:type="MSShapeGroup"></path>
                <path d="M57.7873932,15.7499061 L59.6043507,14.418715" id="Path-54" sketch:type="MSShapeGroup"></path>
                <path d="M60.1611382,21.6865448 L62.9500836,21.1247494" id="Path-55" sketch:type="MSShapeGroup"></path>
                <path d="M61.0926077,29.2525724 L64.1952299,29.1360249" id="Path-56" sketch:type="MSShapeGroup"></path>
                <path d="M59.6658113,38.9902078 L63.775932,40.0332169" id="Path-57" sketch:type="MSShapeGroup"></path>
                <path d="M57.681772,46.5220906 L61.2606,48.0458582" id="Path-58" sketch:type="MSShapeGroup"></path>
            </g>
            <path d="M358.77805,374.871422 L362.308253,372.670747 M354.962559,369.153286 L358.873165,367.734672 M353.499123,362.652225 L357.608564,362.005854 M351.978609,356.630009 L356.132637,356.852164 M351.877256,350.339068 L355.912574,351.349767 M354.016338,342.326375 L357.753338,344.153978 M357.306245,335.875486 L360.581603,338.440117 M362.584022,330.234127 L365.309848,333.376606 M368.723535,326.54079 L370.736436,330.18133 M375.491256,324.976146 L376.70326,328.955638 M382.613808,324.649103 L383.044222,328.786741 M389.910226,325.599886 L389.470971,329.736595 M395.052287,327.830437 L393.831781,331.807329 M399.858196,330.304626 L397.837519,333.940856 M405.053021,333.917172 L402.320485,337.053819 M409.401033,338.490661 L406.120201,341.048286 M412.773113,343.889483 L409.032215,345.709095 M415.993941,349.832829 L411.974575,350.905213 M417.997426,356.144006 L413.842932,356.357282 M378.970625,389.913224 L379.839877,385.845091 M372.983093,387.056763 L374.612611,383.229235 M367.454227,383.997627 L369.843924,380.592535 M362.671957,379.895275 L365.667471,377.00872" id="ticks" sketch:type="MSShapeGroup"></path>
            <g id="ticks" sketch:type="MSLayerGroup" transform="translate(80.000000, 424.000000)">
                <path d="M23.428089,0.263160483 L23.2611288,4.9400038" id="Path-82" sketch:type="MSShapeGroup"></path>
                <path d="M12.4876279,2.0397218 L13.8004832,5.44088453" id="Path-83" sketch:type="MSShapeGroup"></path>
                <path d="M4.82441368,7.88398243 L7.07250724,10.2403393" id="Path-84" sketch:type="MSShapeGroup"></path>
                <path d="M0.604754456,17.8031165 L3.19329038,18.6594399" id="Path-85" sketch:type="MSShapeGroup"></path>
                <path d="M30.6132491,2.67951866 L29.0545187,6.32655643" id="Path-86" sketch:type="MSShapeGroup"></path>
                <path d="M38.5823396,8.00855042 L36.2181565,10.0890316" id="Path-87" sketch:type="MSShapeGroup"></path>
                <path d="M43.6420176,15.6430683 L39.5964927,16.2743867" id="Path-88" sketch:type="MSShapeGroup"></path>
                <path d="M45.5861913,24.9093617 L40.9530446,24.9093617" id="Path-89" sketch:type="MSShapeGroup"></path>
                <path d="M1.29542202,29.0272795 L3.78221655,28.0483447" id="Path-90" sketch:type="MSShapeGroup"></path>
                <path d="M22.244367,146.827513 L25.0213854,148.857123" id="Path-91" sketch:type="MSShapeGroup"></path>
                <path d="M29.5384425,140.373456 L31.5100082,142.737639" id="Path-92" sketch:type="MSShapeGroup"></path>
                <path d="M39.0499588,137.285343 L39.0499588,139.939098" id="Path-93" sketch:type="MSShapeGroup"></path>
                <path d="M47.9471135,137.357736 L47.0770941,140.011491" id="Path-94" sketch:type="MSShapeGroup"></path>
                <path d="M55.943596,141.092167 L54.6816113,143.391132" id="Path-95" sketch:type="MSShapeGroup"></path>
                <path d="M61.2654537,146.28424 L58.9156187,147.662314" id="Path-96" sketch:type="MSShapeGroup"></path>
                <path d="M65.5575058,154.143763 L62.896577,154.767907" id="Path-97" sketch:type="MSShapeGroup"></path>
                <path d="M66.1888242,161.430664 L63.3609351,161.25653" id="Path-98" sketch:type="MSShapeGroup"></path>
                <path d="M273.901108,174.424766 L277.658876,175.320801" id="Path-99" sketch:type="MSShapeGroup"></path>
                <path d="M279.864859,164.421104 L282.459176,166.687547" id="Path-100" sketch:type="MSShapeGroup"></path>
                <path d="M288.585703,159.276651 L289.32749,162.422077" id="Path-101" sketch:type="MSShapeGroup"></path>
                <path d="M297.979347,158.234119 L297.56621,161.457056" id="Path-102" sketch:type="MSShapeGroup"></path>
                <path d="M306.931951,161.64696 L305.493333,163.690169" id="Path-103" sketch:type="MSShapeGroup"></path>
                <path d="M310.698245,169.153969 L313.370074,167.731629" id="Path-104" sketch:type="MSShapeGroup"></path>
                <path d="M313.146065,177.280298 L316.8519,176.529984" id="Path-105" sketch:type="MSShapeGroup"></path>
                <path d="M312.708124,187.084755 L316.603087,188.386176" id="Path-106" sketch:type="MSShapeGroup"></path>
            </g>
        </g>
    </g>
</svg>