<?xml version="1.0" encoding="UTF-8" standalone="no"?>
<svg width="241px" height="255px" viewBox="0 0 241 255" version="1.1" xmlns="http://www.w3.org/2000/svg" xmlns:xlink="http://www.w3.org/1999/xlink" xmlns:sketch="http://www.bohemiancoding.com/sketch/ns">
    <!-- Generator: Sketch 3.3.2 (12043) - http://www.bohemiancoding.com/sketch -->
    <title>logo</title>
    <desc>Created with Sketch.</desc>
    <defs>
        <filter x="-50%" y="-50%" width="200%" height="200%" filterUnits="objectBoundingBox" id="filter-1">
            <feOffset dx="0" dy="2" in="SourceAlpha" result="shadowOffsetOuter1"></feOffset>
            <feGaussianBlur stdDeviation="2" in="shadowOffsetOuter1" result="shadowBlurOuter1"></feGaussianBlur>
            <feColorMatrix values="0 0 0 0 0   0 0 0 0 0   0 0 0 0 0  0 0 0 0.35 0" in="shadowBlurOuter1" type="matrix" result="shadowMatrixOuter1"></feColorMatrix>
            <feMorphology radius="3" in="SourceAlpha" operator="dilate" result="shadowSpreadInner1"></feMorphology>
            <feOffset dx="0" dy="1" in="shadowSpreadInner1" result="shadowOffsetInner1"></feOffset>
            <feGaussianBlur stdDeviation="1.5" in="shadowOffsetInner1" result="shadowBlurInner1"></feGaussianBlur>
            <feComposite in="shadowBlurInner1" in2="SourceAlpha" operator="arithmetic" k2="-1" k3="1" result="shadowInnerInner1"></feComposite>
            <feColorMatrix values="0 0 0 0 0.41974915   0 0 0 0 0.41974915   0 0 0 0 0.41974915  0 0 0 0.35 0" in="shadowInnerInner1" type="matrix" result="shadowMatrixInner1"></feColorMatrix>
            <feMerge>
                <feMergeNode in="shadowMatrixOuter1"></feMergeNode>
                <feMergeNode in="SourceGraphic"></feMergeNode>
                <feMergeNode in="shadowMatrixInner1"></feMergeNode>
            </feMerge>
        </filter>
    </defs>
    <g id="Welcome" stroke="none" stroke-width="1" fill="none" fill-rule="evenodd" sketch:type="MSPage">
        <g id="Desktop" sketch:type="MSArtboardGroup" transform="translate(-134.000000, -373.000000)">
            <path d="M229.359508,596.745723 C229.359508,596.745723 247.464542,600 257,600 C272.29725,600 295.371791,600.675322 311.380249,592.602371 C329.818228,583.304231 340.197589,565.084128 340.197589,565.084128 C340.197589,565.084128 354.278248,549.683927 361.947433,534.277115 C367.34643,523.430939 366.454754,514.339771 368.773532,502.970202 C369.554916,499.138873 370,495.44466 370,492 C370,475.190798 367.436353,454.006576 360.268356,439.820633 C352.81786,425.075604 340.509825,417.467611 327.22733,407.38421 C307.943423,392.744839 283.540224,384 257,384 C229.702533,384 200.331724,391.983576 180.800568,407.384211 C155.679088,427.192907 144,458.442861 144,492 C144,500.946543 144.654702,514.72833 147.136,523.81752 C148.706396,529.570004 150.918544,534.957733 150.918544,534.957733 C150.918544,534.957733 156.092535,546.214314 164.836504,556.548462 C174.150679,567.556514 187.369349,577.860707 197.756058,583.984523 C190.824789,611.268462 177.294987,615.618989 177.294987,615.618989 C177.072574,615.615772 194.053601,627.736685 229.359508,596.745723 Z" id="Oval-3" stroke="#ABABAB" stroke-width="2" filter="url(#filter-1)" sketch:type="MSShapeGroup"></path>
            <path d="M255.472408,525.28397 C254.066998,525.632638 252.773303,526.330235 251.240148,525.851772 C250.056779,518.122227 250.444661,511.822558 250.056779,503.983601 C249.988924,502.612274 249.591187,498.171452 249.591187,498.171452 C249.591187,498.171452 248.503767,495.214073 247.826864,490.512239 C247.050642,485.120524 246.627263,477.641663 245.838005,473.197454 C245.335078,470.365541 243.649818,464.716395 243.649818,464.716395 C243.649818,464.716395 242.4107,458.516605 241.889507,455.310371 C241.611626,453.600924 241.430751,451.125823 241.109023,448.848195 C240.679561,445.807884 240.139802,443.123742 240.139802,443.123742 C240.139802,443.123742 239.893153,441.351447 240.139802,440.108343 C240.34534,439.072438 241.496363,436.286714 241.496363,436.286714 C241.496363,436.286714 241.793765,433.966121 242.448882,432.683909 C242.970871,431.662259 245.027681,429.375128 245.027681,429.375128 C245.027681,429.375128 246.886658,428.508313 247.826863,428.170697 C248.795784,427.82277 250.75506,427.318501 250.75506,427.318501 C250.75506,427.318501 253.533096,427.108227 254.919634,427.318501 C256.138094,427.503285 258.570051,428.503676 258.570051,428.503676 C258.570051,428.503676 261.009047,429.186368 262.220031,429.68278 C262.680622,429.871588 263.584776,430.559335 263.584776,430.559335 L267.19162,437.213358 C267.19162,437.213358 268.839211,441.682153 269.381493,444.361113 C269.67516,445.811869 269.699466,449.602506 269.699466,449.602506 C269.699466,449.602506 268.727093,458.426805 268.070291,462.765428 C267.35278,467.505079 265.576528,476.83733 265.576528,476.83733 C265.576528,476.83733 264.922225,482.234663 264.327731,484.862297 C263.146076,490.085158 260.248081,500.388814 260.248081,500.388814 L256.028315,524.544506 C256.028315,524.544506 255.75697,525.213373 255.472408,525.28397 Z" id="Path-4" stroke="#979797" stroke-width="0.2" fill="#B6B6B6" sketch:type="MSShapeGroup"></path>
            <path d="M254,550 C254.687013,550 255.978211,549.736812 255.978211,549.736812 C255.978211,549.736812 257.499042,548.659078 258.125055,547.781316 C259.220684,546.245086 260.216682,544.179731 260.216682,542.421571 C260.216682,541.212184 260.244185,540.656022 258.914383,538.828011 C257.58458,537 256.563576,537 254,537 C250.134007,537 247,539.910149 247,543.5 C247,547.089851 250.134007,550 254,550 Z" id="Oval-3" stroke="#979797" stroke-width="0.2" fill="#B6B6B6" sketch:type="MSShapeGroup"></path>
        </g>
    </g>
</svg>